<?xml version="1.0" encoding="UTF-8" standalone="no"?>
<!-- Created with Inkscape (http://www.inkscape.org/) -->

<svg
   xmlns:dc="http://purl.org/dc/elements/1.1/"
   xmlns:cc="http://creativecommons.org/ns#"
   xmlns:rdf="http://www.w3.org/1999/02/22-rdf-syntax-ns#"
   xmlns:svg="http://www.w3.org/2000/svg"
   xmlns="http://www.w3.org/2000/svg"
   xmlns:sodipodi="http://sodipodi.sourceforge.net/DTD/sodipodi-0.dtd"
   xmlns:inkscape="http://www.inkscape.org/namespaces/inkscape"
   width="500"
   height="500"
   viewBox="0 0 132.29166 132.29167"
   version="1.1"
   id="svg8"
   sodipodi:docname="icon.svg"
   inkscape:version="0.92.2 (5c3e80d, 2017-08-06)">
  <defs
     id="defs2" />
  <sodipodi:namedview
     id="base"
     pagecolor="#ffffff"
     bordercolor="#666666"
     borderopacity="1.0"
     inkscape:pageopacity="0.0"
     inkscape:pageshadow="2"
     inkscape:zoom="1.0629427"
     inkscape:cx="507.09008"
     inkscape:cy="257.34321"
     inkscape:document-units="mm"
     inkscape:current-layer="layer1"
     showgrid="false"
     inkscape:window-width="1920"
     inkscape:window-height="1035"
     inkscape:window-x="1080"
     inkscape:window-y="23"
     inkscape:window-maximized="0"
     units="px" />
  <metadata
     id="metadata5">
    <rdf:RDF>
      <cc:Work
         rdf:about="">
        <dc:format>image/svg+xml</dc:format>
        <dc:type
           rdf:resource="http://purl.org/dc/dcmitype/StillImage" />
        <dc:title></dc:title>
      </cc:Work>
    </rdf:RDF>
  </metadata>
  <g
     inkscape:label="Layer 1"
     inkscape:groupmode="layer"
     id="layer1"
     transform="translate(0,-164.70832)">
    <g
       id="g91"
       transform="matrix(0.18302241,0,0,0.18299196,86.920013,201.71631)">
      <path
         style="fill:#fdd905;stroke-width:0.08466666"
         d="m -474.6655,159.41667 v -361.27264 h 361.27265 361.27264 V 159.41667 520.68932 H -113.39285 -474.6655 Z m 598.88963,0.16934 V 35.253016 l -153.782885,-0.02119 c -99.288615,-0.01368 -153.772885,0.0079 -153.754655,0.06091 0.0155,0.04516 31.65122,23.004575 70.30155,51.020943 38.650336,28.016361 70.635284,51.225651 71.077667,51.576191 1.118083,0.88598 3.619085,3.42542 4.523935,4.59347 2.630508,3.39567 4.530631,7.37896 5.453202,11.43173 0.554355,2.43522 0.642806,3.31262 0.64422,6.3906 0.0014,3.03535 -0.05265,3.62579 -0.550367,6.01134 -1.335329,6.4003 -5.023841,12.42325 -10.08888,16.47407 -0.498788,0.39891 -32.312286,23.1424 -70.696667,50.54107 -38.38437,27.39868 -69.99083,49.96266 -70.23656,50.14219 -0.24575,0.17952 -0.42446,0.36254 -0.39716,0.40672 0.0313,0.0506 56.9031,0.0725 153.778122,0.0591 L 124.22413,283.919 Z M -272.55911,229.69 c 42.38005,-29.59311 77.35041,-54.04196 77.71191,-54.33075 3.28474,-2.6242 5.52926,-6.44541 6.28106,-10.69324 0.22254,-1.2574 0.30278,-3.61913 0.16397,-4.826 -0.55124,-4.7928 -2.75965,-8.9228 -6.31301,-11.80611 -0.4191,-0.34006 -35.37585,-25.75644 -77.68167,-56.480831 -42.30581,-30.724397 -77.02639,-55.941007 -77.15683,-56.036926 -0.20351,-0.14964 -0.2484,-0.156659 -0.31621,-0.04943 -0.0882,0.139523 -0.11682,247.711707 -0.0286,247.941517 0.0291,0.0759 0.10514,0.12669 0.16887,0.11276 0.0637,-0.0139 34.79048,-24.23787 77.17054,-53.83099 z"
         id="path95"
         inkscape:connector-curvature="0" />
      <path
         style="fill:#19272f;stroke-width:0.08466666"
         d="m -183.28247,283.88106 c -0.0273,-0.0442 0.15141,-0.2272 0.39716,-0.40672 0.24573,-0.17953 31.85219,-22.74351 70.23656,-50.14219 38.384381,-27.39867 70.197879,-50.14216 70.696667,-50.54107 5.065039,-4.05082 8.753551,-10.07377 10.08888,-16.47407 0.497713,-2.38555 0.551772,-2.97599 0.550367,-6.01134 -0.0014,-3.07798 -0.08986,-3.95538 -0.64422,-6.3906 -0.922571,-4.05277 -2.822694,-8.03606 -5.453202,-11.43173 -0.90485,-1.16805 -3.405852,-3.70749 -4.523935,-4.59347 -0.442383,-0.35054 -32.427331,-23.55983 -71.077667,-51.576194 -38.65033,-28.016368 -70.28602,-50.975782 -70.30155,-51.020943 -0.0182,-0.053 54.46604,-0.07459 153.754655,-0.06091 l 153.782885,0.02119 V 159.58601 283.919 l -153.728478,0.0212 c -96.875022,0.0134 -153.746842,-0.009 -153.778122,-0.0591 z m -166.61605,-0.47283 c -0.0882,-0.22981 -0.0596,-247.801993 0.0286,-247.941516 0.0678,-0.10723 0.1127,-0.100211 0.31621,0.04943 0.13044,0.09592 34.85102,25.312529 77.15683,56.036926 42.30582,30.72439 77.26257,56.14077 77.68167,56.48083 3.55336,2.88331 5.76177,7.01331 6.31301,11.80611 0.13881,1.20687 0.0586,3.5686 -0.16397,4.826 -0.7518,4.24783 -2.99632,8.06904 -6.28106,10.69324 -0.79121,0.63209 -154.71664,108.12551 -154.88245,108.16174 -0.0637,0.0139 -0.13973,-0.0368 -0.16887,-0.11276 z"
         id="path93"
         inkscape:connector-curvature="0" />
    </g>
  </g>
</svg>
