<svg id="Layer_1" xmlns="http://www.w3.org/2000/svg" viewBox="0 0 775.9 775.9"><style>.st0{fill:#4491ff}.st1{fill:#fff}</style><path class="st0" d="M635.9 586.8c0 2-1.6 4.6-4.7 8.2-3 3.4-9.9 4.9-20.9 4.9H562v-22h48.8c10.5 0 17.3 1.1 20.4 2.8 3.1 1.7 4.7 3.9 4.7 6.1zm-51.8-271c0 14.3-4.5 29.8-13.2 41.9l-20-20.7-69.8 8.7 45.6 45.2c-7.5 2.6-15.1 3.8-22.6 3.8-44.1 0-80.7-35.8-80.7-84.8 0-39.2 36.6-75 80.7-75 44.5-.2 80 38.3 80 80.9zm51.8 224.1c0 2.2-1.5 4.2-4.5 5.7-2.8 1.4-9.5 2.4-20.1 2.4H562v-22h48.3c10.9 0 17.9 1.9 20.9 5.4 3.1 3.5 4.7 6.5 4.7 8.5z"/><path class="st0" d="M634.5 0L0 141.4l141.4 634.5 634.5-141.4L634.5 0zM204 340.7c-46.4-13.2-76.9-25.3-76.9-80.3 0-57.7 41.1-95.4 98.1-95.4 28.6 0 63.7 9.1 89 23.4l-29.4 57.3c-13.6-11.3-30.9-18.8-49-18.8-13.6 0-31.7 7.9-31.7 23.8 0 16.6 20 23 32.8 27.2l18.9 5.7c39.6 11.7 70.1 31.7 70.1 77.7 0 28.3-6.8 57.3-29.4 76.5-22.2 18.9-52 26.8-80.7 26.8-35.8 0-70.9-12-99.9-32.4l31.7-59.6c18.5 16.2 40.4 29.4 65.6 29.4 17.3 0 35.8-8.7 35.8-28.7-.2-20.9-29.2-28.1-45-32.6zm125 251.5c0 12.7-3.4 22.1-10.1 28.9-6.7 6.7-19.2 9.9-37.5 9.9H177.8c-9.1 0-16.7-.6-22.9-2.2-6.2-1.7-11.1-4-14.9-7.2-3.8-3.2-6.7-7.2-8.3-12.1-1.6-4.9-2.7-10.6-2.7-17.2V495h42v83.9c0 3.4.3 6.5 1 9.1.8 2.7 2.1 4.9 3.9 6.8 1.9 1.9 4.4 3 7.6 4 3.2.9 7.3 1.2 12.3 1.2H208V495h41v105h13.4c10.9 0 17.9-1.5 20.9-4.9 3.1-3.6 4.7-8.8 4.7-16.2V495h41v97.2zm174-66.3h-89.6c-5 0-9.1.6-12.3 1.6-3.2.9-5.8 2.5-7.7 4.3-2 1.9-3.3 4.4-4.1 7-.8 2.6-1.2 5.1-1.2 9.1H503v30H388.1c0 4 .4 7 1.2 9.7.8 2.7 2.2 5.2 4.1 7 2 1.9 4.5 3.1 7.7 4 3.2.9 7.3 1.2 12.3 1.2H503v31H395.3c-9.1 0-16.7-.6-22.9-2.2-6.2-1.7-11.1-4-14.9-7.2-3.8-3.2-6.5-7.2-8.1-12.1-1.6-4.9-2.5-10.6-2.5-17.2v-57.7c0-6.6.8-12.3 2.5-17.2 1.6-4.9 4.3-9 8.1-12.2 3.8-3.2 8.7-5.8 14.9-7.5 6.2-1.6 13.8-2.7 22.9-2.7H503v31.1zM346.5 309.4c0-86 75.4-146.3 157.3-146.3 88.6 0 157.2 60 157.2 152.3 0 37.7-12.8 70.5-36.6 99.9l47.9 48.6-67.9 10.6-22.6-26.8c-21.9 13.2-47.5 18.5-78.1 18.5-91.2.1-157.2-64.8-157.2-156.8zM677 586.3v5.9c0 12.7-3.4 22.1-10.1 28.9-6.7 6.7-19.3 9.9-37.6 9.9H521V495h108.3c18.3 0 30.9 3.6 37.6 10.3 6.7 6.7 10.1 16.6 10.1 29.3v5.9c0 11.1-8.6 19.8-25.8 26.3 17 3.6 25.8 10.1 25.8 19.5z"/><path class="st1" d="M677 540.4v-5.9c0-12.6-3.4-22.6-10.1-29.3-6.7-6.7-19.3-10.3-37.6-10.3H521v136h108.3c18.3 0 30.9-3.1 37.6-9.9 6.7-6.7 10.1-16.2 10.1-28.9v-5.9c0-9.4-8.8-16-25.8-19.7 17.2-6.3 25.8-15 25.8-26.1zM631.2 595c-3 3.4-9.9 4.9-20.9 4.9H562v-22h48.8c10.5 0 17.3 1.1 20.4 2.8 3.1 1.7 4.7 3.7 4.7 5.9 0 2-1.6 4.8-4.7 8.4zm.2-49.5c-2.8 1.4-9.5 2.4-20.1 2.4H562v-22h48.3c10.9 0 17.9 1.9 20.9 5.4 3.1 3.6 4.7 6.6 4.7 8.7 0 2.1-1.5 4.1-4.5 5.5zm-242.2-6.7c-.8 2.6-1.2 5.1-1.2 9.1h115v30H388.1c0 4 .4 7 1.2 9.7.8 2.7 2.2 5.2 4.1 7 2 1.9 4.5 3.1 7.7 4 3.2.9 7.3 1.2 12.3 1.2H503v31H395.3c-9.1 0-16.7-.6-22.9-2.2-6.2-1.7-11.1-4-14.9-7.2-3.8-3.2-6.5-7.2-8.1-12.1-1.6-4.9-2.5-10.6-2.5-17.2v-57.7c0-6.6.8-12.3 2.5-17.2 1.6-4.9 4.3-9 8.1-12.2 3.8-3.2 8.7-5.8 14.9-7.5 6.2-1.6 13.8-2.7 22.9-2.7H503v31h-89.6c-5 0-9.1.6-12.3 1.6-3.2.9-5.8 2.5-7.7 4.3-2 2-3.4 4.5-4.2 7.1zM329 494.9v97.3c0 12.7-3.4 22.1-10.1 28.9-6.7 6.7-19.2 9.9-37.5 9.9H177.8c-9.1 0-16.7-.6-22.9-2.2-6.2-1.7-11.1-4-14.9-7.2-3.8-3.2-6.7-7.2-8.3-12.1-1.6-4.9-2.7-10.6-2.7-17.2V495h42v83.9c0 3.4.3 6.5 1 9.1.8 2.7 2.1 4.9 3.9 6.8 1.9 1.9 4.4 3 7.6 4 3.2.9 7.3 1.2 12.3 1.2H208V495h41v105h13.4c10.9 0 17.9-1.5 20.9-4.9 3.1-3.6 4.7-8.8 4.7-16.2V495h41zm295.4-79.5c23.8-29.4 36.6-62.2 36.6-99.9 0-92.4-68.6-152.3-157.2-152.3-81.8 0-157.3 60.3-157.3 146.3 0 92 66 156.9 157.3 156.9 30.5 0 56.2-5.3 78.1-18.5l22.6 26.8 67.9-10.6-48-48.7zm-53.5-57.7l-20-20.7-69.8 8.7 45.6 45.2c-7.5 2.6-15.1 3.8-22.6 3.8-44.1 0-80.7-35.8-80.7-84.8 0-39.2 36.6-75 80.7-75 44.5 0 79.9 38.5 79.9 81.1.1 14.1-4.4 29.6-13.1 41.7zm-245.1 3.4c0 28.3-6.8 57.3-29.4 76.5-22.2 18.9-52 26.8-80.7 26.8-35.8 0-70.9-12-99.9-32.4l31.7-59.6c18.5 16.2 40.4 29.4 65.6 29.4 17.3 0 35.8-8.7 35.8-28.7 0-20.7-29-27.9-44.9-32.4-46.4-13.2-76.9-25.3-76.9-80.3 0-57.7 41.1-95.4 98.1-95.4 28.6 0 63.7 9.1 89 23.4l-29.4 57.3c-13.6-11.3-30.9-18.8-49-18.8-13.6 0-31.7 7.9-31.7 23.8 0 16.6 20 23 32.8 27.2l18.9 5.7c39.4 11.5 70 31.5 70 77.5z"/></svg>